<svg width="102" height="139" viewBox="0 0 102 139" fill="none" xmlns="http://www.w3.org/2000/svg">
<path d="M8.40869 0.000495097C3.71477 0.0509743 -0.0496823 3.89841 0.000488281 8.59229C0.274762 34.1113 12.3563 53.2547 27.3472 66.7095C29.7009 68.822 32.137 70.7984 34.6187 72.6509C25.0025 87.9109 18.9238 106.155 17.0542 125.394C16.3733 132.403 22.1849 138.125 29.2729 138.125H102V31.8755C80.8457 31.8756 60.5006 41.6064 44.8403 59.0669C43.5316 58.0914 42.241 57.0752 40.9751 56.0181C40.7612 53.7935 40.6874 50.8122 41.0435 47.5288C41.5706 42.6697 42.9678 37.7252 45.6606 33.689C48.2653 29.784 47.2118 24.5051 43.3071 21.8999C39.4024 19.2951 34.1236 20.3492 31.5181 24.2534C28.5027 28.7731 26.6075 33.6401 25.4478 38.3023C20.3274 29.8514 17.1246 19.9519 17.0005 8.40967C16.9498 3.71593 13.1024 -0.0496516 8.40869 0.000495097ZM64.0806 92.0005C66.6442 92.0005 68.6089 92.6523 69.9741 93.9556C71.3241 95.2588 71.9994 97.1511 71.9995 99.6333V107.546C71.9995 110.013 71.3242 111.906 69.9741 113.225C68.6089 114.528 66.6442 115.18 64.0806 115.18C61.502 115.18 59.538 114.528 58.188 113.225C56.8379 111.906 56.1626 110.013 56.1626 107.546V99.6333C56.1627 97.0735 56.8453 95.1654 58.2104 93.9087C59.5756 92.6365 61.5323 92.0006 64.0806 92.0005Z" fill="#FFC452"/>
</svg>
