<svg width="102" height="139" viewBox="0 0 102 139" fill="none" xmlns="http://www.w3.org/2000/svg">
<path d="M93.5908 0.000495097C98.2847 0.0509743 102.049 3.89841 101.999 8.59229C101.725 34.1113 89.6432 53.2547 74.6523 66.7095C72.2987 68.822 69.8625 70.7984 67.3809 72.6509C76.997 87.9109 83.0757 106.155 84.9453 125.394C85.6262 132.403 79.8146 138.125 72.7266 138.125H0V31.8755C21.1538 31.8756 41.499 41.6064 57.1592 59.0669C58.468 58.0914 59.7585 57.0752 61.0244 56.0181C61.2383 53.7935 61.3121 50.8122 60.9561 47.5288C60.4289 42.6697 59.0317 37.7252 56.3389 33.689C53.7342 29.784 54.7877 24.5051 58.6924 21.8999C62.5971 19.2951 67.876 20.3492 70.4814 24.2534C73.4968 28.7731 75.392 33.6401 76.5518 38.3023C81.6721 29.8514 84.875 19.9519 84.999 8.40967C85.0497 3.71593 88.8971 -0.0496516 93.5908 0.000495097ZM37.9189 92.0005C35.3553 92.0005 33.3907 92.6523 32.0254 93.9556C30.6755 95.2588 30.0001 97.1511 30 99.6333V107.546C30 110.013 30.6753 111.906 32.0254 113.225C33.3907 114.528 35.3553 115.18 37.9189 115.18C40.4975 115.18 42.4615 114.528 43.8115 113.225C45.1616 111.906 45.8369 110.013 45.8369 107.546V99.6333C45.8368 97.0735 45.1542 95.1654 43.7891 93.9087C42.4239 92.6365 40.4673 92.0006 37.9189 92.0005Z" fill="#A79DDA"/>
</svg>
