<svg width="204" height="187" viewBox="0 0 204 187" fill="none" xmlns="http://www.w3.org/2000/svg">
<path d="M195.591 0.000495097C200.285 0.0509743 204.049 3.89841 203.999 8.59229C203.725 34.1113 191.643 53.2547 176.652 66.7095C174.299 68.822 171.863 70.7984 169.381 72.6509C178.997 87.9109 185.076 106.155 186.945 125.394C187.626 132.403 181.815 138.125 174.727 138.125H102V31.8755C123.154 31.8756 143.499 41.6064 159.159 59.0669C160.468 58.0914 161.758 57.0752 163.024 56.0181C163.238 53.7935 163.312 50.8122 162.956 47.5288C162.429 42.6697 161.032 37.7252 158.339 33.689C155.734 29.784 156.788 24.5051 160.692 21.8999C164.597 19.2951 169.876 20.3492 172.481 24.2534C175.497 28.7731 177.392 33.6401 178.552 38.3023C183.672 29.8514 186.875 19.9519 186.999 8.40967C187.05 3.71593 190.897 -0.0496516 195.591 0.000495097ZM139.919 92.0005C137.355 92.0005 135.391 92.6523 134.025 93.9556C132.675 95.2588 132 97.1511 132 99.6333V107.546C132 110.013 132.675 111.906 134.025 113.225C135.391 114.528 137.355 115.18 139.919 115.18C142.498 115.18 144.461 114.528 145.812 113.225C147.162 111.906 147.837 110.013 147.837 107.546V99.6333C147.837 97.0735 147.154 95.1654 145.789 93.9087C144.424 92.6365 142.467 92.0006 139.919 92.0005Z" fill="#A79DDA"/>
<path d="M8.40869 0.000495097C3.71477 0.0509743 -0.0496823 3.89841 0.000488281 8.59229C0.274762 34.1113 12.3563 53.2547 27.3472 66.7095C29.7009 68.822 32.137 70.7984 34.6187 72.6509C25.0025 87.9109 18.9238 106.155 17.0542 125.394C16.3733 132.403 22.1849 138.125 29.2729 138.125H102V31.8755C80.8457 31.8756 60.5006 41.6064 44.8403 59.0669C43.5316 58.0914 42.241 57.0752 40.9751 56.0181C40.7612 53.7935 40.6874 50.8122 41.0435 47.5288C41.5706 42.6697 42.9678 37.7252 45.6606 33.689C48.2653 29.784 47.2118 24.5051 43.3071 21.8999C39.4024 19.2951 34.1236 20.3492 31.5181 24.2534C28.5027 28.7731 26.6075 33.6401 25.4478 38.3023C20.3274 29.8514 17.1246 19.9519 17.0005 8.40967C16.9498 3.71593 13.1024 -0.0496516 8.40869 0.000495097ZM64.0806 92.0005C66.6442 92.0005 68.6089 92.6523 69.9741 93.9556C71.3241 95.2588 71.9994 97.1511 71.9995 99.6333V107.546C71.9995 110.013 71.3242 111.906 69.9741 113.225C68.6089 114.528 66.6442 115.18 64.0806 115.18C61.502 115.18 59.538 114.528 58.188 113.225C56.8379 111.906 56.1626 110.013 56.1626 107.546V99.6333C56.1627 97.0735 56.8453 95.1654 58.2104 93.9087C59.5756 92.6365 61.5323 92.0006 64.0806 92.0005Z" fill="#FFC452"/>
<path d="M18.8659 186.907C18.3046 186.907 17.8495 186.713 17.5006 186.325C17.1669 185.937 17 185.417 17 184.766V159.77C17 159.134 17.1745 158.599 17.5234 158.164C17.8723 157.714 18.3653 157.489 19.0024 157.489C20.216 157.489 20.8227 158.25 20.8227 159.77V170.569H24.4635C24.873 170.569 25.3357 170.36 25.8515 169.941C26.3673 169.506 26.974 168.808 27.6718 167.846C28.3696 166.869 29.1964 165.558 30.1521 163.913C30.4706 163.37 30.8575 162.734 31.3126 162.005C31.7676 161.26 32.291 160.546 32.8826 159.863C33.4894 159.165 34.172 158.591 34.9305 158.141C35.7042 157.676 36.5537 157.443 37.479 157.443C39.0567 157.443 39.8455 158.141 39.8455 159.538C39.8455 160.282 39.6179 160.748 39.1628 160.934C38.7229 161.12 38.1617 161.26 37.479 161.353C36.8267 161.446 36.2351 161.826 35.7042 162.493C35.1884 163.145 34.5209 164.146 33.7018 165.495C33.004 166.659 32.4427 167.59 32.0179 168.288C31.6084 168.986 31.2443 169.568 30.9257 170.034C30.6072 170.499 30.2279 170.957 29.788 171.407C29.3633 171.841 28.7716 172.384 28.0132 173.036L27.9221 171.826C28.8627 172.602 29.6894 173.416 30.4024 174.27C31.1305 175.107 31.7752 175.945 32.3365 176.783C32.8978 177.621 33.4136 178.42 33.8838 179.18C34.6878 180.437 35.3401 181.36 35.8407 181.95C36.3565 182.524 36.9177 182.873 37.5245 182.997C37.7521 183.044 38.0479 183.106 38.4119 183.183C38.7912 183.245 39.1249 183.408 39.4131 183.672C39.7014 183.936 39.8455 184.378 39.8455 184.999C39.8455 186.271 39.1022 186.907 37.6155 186.907C36.5082 186.907 35.3629 186.535 34.1796 185.79C33.0116 185.03 31.8814 183.897 30.7892 182.392C30.5465 182.035 30.1748 181.492 29.6742 180.763C29.1888 180.018 28.7413 179.335 28.3317 178.715C27.4064 177.287 26.61 176.224 25.9425 175.526C25.2902 174.828 24.6455 174.479 24.0084 174.479H20.8227V184.766C20.8227 185.386 20.6407 185.898 20.2766 186.302C19.9277 186.705 19.4575 186.907 18.8659 186.907Z" fill="#A79DDA"/>
<path d="M72.1664 186.907C70.8922 186.907 70.255 186.147 70.255 184.626V160.329H61.5173C60.4858 160.329 59.7956 160.461 59.4467 160.724C59.0978 160.973 58.9233 161.477 58.9233 162.237V180.111C58.9233 181.632 58.7109 182.873 58.2862 183.835C57.8766 184.781 57.2167 185.479 56.3066 185.929C55.4115 186.364 54.2359 186.581 52.7796 186.581C51.202 186.581 50.4132 185.929 50.4132 184.626C50.4132 183.323 51.202 182.671 52.7796 182.671C53.5078 182.671 53.9856 182.555 54.2131 182.322C54.4407 182.074 54.5545 181.57 54.5545 180.809V162.889C54.5545 161.244 54.7593 159.956 55.1688 159.026C55.5784 158.079 56.261 157.412 57.2167 157.024C58.1876 156.621 59.5149 156.419 61.1988 156.419H74.0778V184.626C74.0778 186.147 73.4407 186.907 72.1664 186.907Z" fill="#A79DDA"/>
<path d="M91.2908 186.907C90.0469 186.907 89.425 186.162 89.425 184.673V158.374C89.425 156.853 90.0621 156.093 91.3363 156.093C92.6106 156.093 93.2477 156.9 93.2477 158.514V179.948L109.13 157.28C109.707 156.489 110.359 156.093 111.087 156.093C112.301 156.093 112.908 156.853 112.908 158.374V184.673C112.908 186.162 112.27 186.907 110.996 186.907C109.722 186.907 109.085 186.209 109.085 184.812V163.098L93.3842 185.627C93.0202 186.154 92.7016 186.496 92.4286 186.651C92.1707 186.822 91.7914 186.907 91.2908 186.907Z" fill="#A79DDA"/>
<path d="M130.059 186.907C129.497 186.907 129.042 186.713 128.693 186.325C128.36 185.937 128.193 185.417 128.193 184.766V159.77C128.193 159.134 128.367 158.599 128.716 158.164C129.065 157.714 129.558 157.489 130.195 157.489C131.409 157.489 132.016 158.25 132.016 159.77V170.569H135.656C136.066 170.569 136.529 170.36 137.044 169.941C137.56 169.506 138.167 168.808 138.865 167.846C139.563 166.869 140.389 165.558 141.345 163.913C141.664 163.37 142.05 162.734 142.505 162.005C142.961 161.26 143.484 160.546 144.075 159.863C144.682 159.165 145.365 158.591 146.123 158.141C146.897 157.676 147.747 157.443 148.672 157.443C150.25 157.443 151.038 158.141 151.038 159.538C151.038 160.282 150.811 160.748 150.356 160.934C149.916 161.12 149.355 161.26 148.672 161.353C148.02 161.446 147.428 161.826 146.897 162.493C146.381 163.145 145.714 164.146 144.895 165.495C144.197 166.659 143.636 167.59 143.211 168.288C142.801 168.986 142.437 169.568 142.119 170.034C141.8 170.499 141.421 170.957 140.981 171.407C140.556 171.841 139.965 172.384 139.206 173.036L139.115 171.826C140.056 172.602 140.882 173.416 141.595 174.27C142.323 175.107 142.968 175.945 143.529 176.783C144.091 177.621 144.606 178.42 145.077 179.18C145.881 180.437 146.533 181.36 147.034 181.95C147.549 182.524 148.111 182.873 148.717 182.997C148.945 183.044 149.241 183.106 149.605 183.183C149.984 183.245 150.318 183.408 150.606 183.672C150.894 183.936 151.038 184.378 151.038 184.999C151.038 186.271 150.295 186.907 148.808 186.907C147.701 186.907 146.556 186.535 145.372 185.79C144.204 185.03 143.074 183.897 141.982 182.392C141.739 182.035 141.368 181.492 140.867 180.763C140.382 180.018 139.934 179.335 139.525 178.715C138.599 177.287 137.803 176.224 137.135 175.526C136.483 174.828 135.838 174.479 135.201 174.479H132.016V184.766C132.016 185.386 131.834 185.898 131.47 186.302C131.121 186.705 130.65 186.907 130.059 186.907Z" fill="#A79DDA"/>
<path d="M175.259 187C172.862 187 170.784 186.535 169.024 185.604C167.264 184.673 165.907 183.354 164.951 181.647C163.995 179.94 163.517 177.923 163.517 175.596V167.404C163.517 165.077 163.995 163.06 164.951 161.353C165.907 159.646 167.264 158.327 169.024 157.396C170.784 156.465 172.862 156 175.259 156C177.64 156 179.711 156.473 181.471 157.42C183.23 158.351 184.588 159.669 185.544 161.376C186.515 163.083 187 165.092 187 167.404V175.596C187 177.908 186.515 179.917 185.544 181.624C184.588 183.331 183.23 184.657 181.471 185.604C179.711 186.535 177.64 187 175.259 187ZM175.259 183.09C177.838 183.09 179.802 182.438 181.152 181.135C182.502 179.816 183.177 177.923 183.177 175.456V167.544C183.177 164.983 182.495 163.075 181.129 161.818C179.764 160.546 177.807 159.91 175.259 159.91C172.695 159.91 170.731 160.562 169.365 161.865C168.015 163.168 167.34 165.061 167.34 167.544V175.456C167.34 177.923 168.015 179.816 169.365 181.135C170.731 182.438 172.695 183.09 175.259 183.09Z" fill="#A79DDA"/>
<path d="M175.259 156C177.64 156 179.711 156.473 181.471 157.42C183.23 158.351 184.588 159.669 185.544 161.376C186.515 163.083 187 165.092 187 167.404V175.596C187 177.908 186.515 179.917 185.544 181.624C184.588 183.331 183.23 184.657 181.471 185.604C179.711 186.534 177.64 187 175.259 187C172.862 187 170.784 186.534 169.024 185.604C167.265 184.673 165.907 183.354 164.951 181.647C163.995 179.941 163.518 177.923 163.518 175.596V167.404C163.518 165.077 163.995 163.059 164.951 161.353C165.907 159.646 167.265 158.327 169.024 157.396C170.784 156.466 172.862 156 175.259 156ZM111.087 156.093C112.3 156.093 112.907 156.854 112.907 158.374V184.673C112.907 186.162 112.27 186.907 110.996 186.907C109.722 186.907 109.085 186.209 109.085 184.812V163.099L102 173.264V167.456L109.13 157.28C109.706 156.489 110.359 156.093 111.087 156.093ZM148.672 157.443C150.249 157.443 151.038 158.141 151.038 159.537C151.038 160.282 150.811 160.747 150.355 160.934C149.916 161.12 149.354 161.259 148.672 161.353C148.02 161.446 147.428 161.826 146.897 162.493C146.382 163.145 145.714 164.145 144.895 165.495C144.197 166.659 143.636 167.59 143.211 168.288C142.801 168.986 142.437 169.569 142.118 170.034C141.8 170.499 141.42 170.957 140.98 171.407C140.686 171.708 140.309 172.06 139.854 172.466C140.495 173.047 141.076 173.648 141.596 174.27C142.324 175.107 142.968 175.945 143.529 176.783C144.091 177.621 144.607 178.42 145.077 179.181C145.881 180.437 146.533 181.36 147.033 181.949C147.549 182.523 148.111 182.873 148.718 182.997C148.945 183.044 149.241 183.106 149.604 183.184C149.984 183.246 150.318 183.408 150.606 183.672C150.894 183.936 151.038 184.378 151.038 184.998C151.038 186.27 150.295 186.907 148.809 186.907C147.701 186.907 146.555 186.535 145.372 185.79C144.204 185.03 143.075 183.897 141.982 182.392C141.74 182.035 141.368 181.492 140.867 180.763C140.382 180.018 139.934 179.335 139.524 178.715C138.599 177.288 137.803 176.225 137.136 175.526C136.483 174.828 135.838 174.479 135.201 174.479H132.016V184.766C132.016 185.386 131.834 185.898 131.47 186.302C131.121 186.705 130.65 186.907 130.059 186.907C129.497 186.907 129.042 186.713 128.693 186.325C128.36 185.937 128.193 185.417 128.193 184.766V159.771C128.193 159.134 128.367 158.598 128.716 158.164C129.065 157.714 129.558 157.489 130.195 157.489C131.409 157.489 132.016 158.25 132.016 159.771V170.569H135.656C136.066 170.569 136.528 170.359 137.044 169.94C137.56 169.506 138.166 168.808 138.864 167.846C139.562 166.868 140.389 165.558 141.345 163.913C141.663 163.37 142.051 162.734 142.506 162.005C142.961 161.26 143.484 160.546 144.075 159.863C144.682 159.165 145.365 158.592 146.123 158.142C146.897 157.676 147.747 157.443 148.672 157.443ZM175.259 159.91C172.695 159.91 170.731 160.562 169.365 161.865C168.015 163.169 167.34 165.062 167.34 167.544V175.456C167.34 177.923 168.015 179.816 169.365 181.135C170.731 182.438 172.695 183.09 175.259 183.09C177.838 183.09 179.802 182.438 181.152 181.135C182.502 179.816 183.178 177.923 183.178 175.456V167.544C183.178 164.984 182.494 163.075 181.129 161.818C179.764 160.546 177.807 159.91 175.259 159.91Z" fill="#FFC452"/>
</svg>
