<svg width="170" height="31" viewBox="0 0 170 31" fill="none" xmlns="http://www.w3.org/2000/svg">
<path d="M1.86587 30.9069C1.30459 30.9069 0.8495 30.713 0.500598 30.3251C0.166866 29.9372 0 29.4174 0 28.7658V3.77027C0 3.13413 0.174451 2.59885 0.523353 2.16441C0.872254 1.71446 1.36527 1.48949 2.00239 1.48949C3.21596 1.48949 3.82275 2.24975 3.82275 3.77027V14.5691H7.46346C7.87304 14.5691 8.33572 14.3596 8.85149 13.9407C9.36725 13.5063 9.97404 12.8081 10.6718 11.8461C11.3696 10.8686 12.1964 9.55756 13.1521 7.91291C13.4706 7.36987 13.8575 6.73373 14.3126 6.00451C14.7676 5.25976 15.291 4.54605 15.8826 3.86336C16.4894 3.16516 17.172 2.59109 17.9305 2.14114C18.7042 1.67568 19.5537 1.44294 20.479 1.44294C22.0567 1.44294 22.8455 2.14114 22.8455 3.53754C22.8455 4.28228 22.6179 4.74775 22.1628 4.93393C21.7229 5.12012 21.1616 5.25976 20.479 5.35285C19.8267 5.44595 19.2351 5.82608 18.7042 6.49324C18.1884 7.14489 17.5209 8.14565 16.7018 9.4955C16.004 10.6592 15.4427 11.5901 15.0179 12.2883C14.6084 12.9865 14.2443 13.5683 13.9257 14.0338C13.6072 14.4992 13.2279 14.957 12.788 15.4069C12.3633 15.8413 11.7716 16.3844 11.0132 17.036L10.9221 15.8258C11.8627 16.6016 12.6894 17.4162 13.4024 18.2695C14.1305 19.1074 14.7752 19.9452 15.3365 20.783C15.8978 21.6209 16.4136 22.4199 16.8838 23.1802C17.6878 24.4369 18.3401 25.3601 18.8407 25.9497C19.3565 26.5238 19.9177 26.8729 20.5245 26.997C20.7521 27.0435 21.0479 27.1056 21.4119 27.1832C21.7912 27.2452 22.1249 27.4082 22.4131 27.6719C22.7014 27.9357 22.8455 28.3779 22.8455 28.9985C22.8455 30.2708 22.1022 30.9069 20.6155 30.9069C19.5082 30.9069 18.3629 30.5345 17.1796 29.7898C16.0116 29.0295 14.8814 27.8969 13.7892 26.3919C13.5465 26.035 13.1748 25.492 12.6742 24.7628C12.1888 24.018 11.7413 23.3353 11.3317 22.7147C10.4064 21.2873 9.60997 20.2245 8.9425 19.5263C8.29021 18.8281 7.6455 18.479 7.00837 18.479H3.82275V28.7658C3.82275 29.3864 3.64071 29.8984 3.27664 30.3018C2.92774 30.7052 2.45748 30.9069 1.86587 30.9069Z" fill="#A79DDA"/>
<path d="M55.1664 30.9069C53.8922 30.9069 53.255 30.1466 53.255 28.6261V4.32883H44.5173C43.4858 4.32883 42.7956 4.46071 42.4467 4.72447C42.0978 4.97272 41.9233 5.47698 41.9233 6.23724V24.1111C41.9233 25.6316 41.7109 26.8729 41.2862 27.8348C40.8766 28.7813 40.2167 29.4795 39.3066 29.9294C38.4115 30.3639 37.2359 30.5811 35.7796 30.5811C34.202 30.5811 33.4132 29.9294 33.4132 28.6261C33.4132 27.3228 34.202 26.6712 35.7796 26.6712C36.5078 26.6712 36.9856 26.5548 37.2131 26.3221C37.4407 26.0738 37.5545 25.5696 37.5545 24.8093V6.88889C37.5545 5.24424 37.7593 3.95646 38.1688 3.02553C38.5784 2.07908 39.261 1.41191 40.2167 1.02402C41.1876 0.620621 42.5149 0.418919 44.1988 0.418919H57.0778V28.6261C57.0778 30.1466 56.4407 30.9069 55.1664 30.9069Z" fill="#A79DDA"/>
<path d="M74.2908 30.9069C73.0469 30.9069 72.425 30.1622 72.425 28.6727V2.37387C72.425 0.853353 73.0621 0.0930919 74.3363 0.0930919C75.6106 0.0930919 76.2477 0.899899 76.2477 2.51351V23.9482L92.1303 1.28003C92.7068 0.488738 93.3591 0.0930919 94.0872 0.0930919C95.3008 0.0930919 95.9076 0.853353 95.9076 2.37387V28.6727C95.9076 30.1622 95.2704 30.9069 93.9962 30.9069C92.7219 30.9069 92.0848 30.2087 92.0848 28.8123V7.09835L76.3842 29.6269C76.0202 30.1544 75.7016 30.4957 75.4286 30.6509C75.1707 30.8216 74.7914 30.9069 74.2908 30.9069Z" fill="#A79DDA"/>
<path d="M113.059 30.9069C112.497 30.9069 112.042 30.713 111.693 30.3251C111.36 29.9372 111.193 29.4174 111.193 28.7658V3.77027C111.193 3.13413 111.367 2.59885 111.716 2.16441C112.065 1.71446 112.558 1.48949 113.195 1.48949C114.409 1.48949 115.016 2.24975 115.016 3.77027V14.5691H118.656C119.066 14.5691 119.529 14.3596 120.044 13.9407C120.56 13.5063 121.167 12.8081 121.865 11.8461C122.563 10.8686 123.389 9.55756 124.345 7.91291C124.664 7.36987 125.05 6.73373 125.505 6.00451C125.961 5.25976 126.484 4.54605 127.075 3.86336C127.682 3.16516 128.365 2.59109 129.123 2.14114C129.897 1.67568 130.747 1.44294 131.672 1.44294C133.25 1.44294 134.038 2.14114 134.038 3.53754C134.038 4.28228 133.811 4.74775 133.356 4.93393C132.916 5.12012 132.355 5.25976 131.672 5.35285C131.02 5.44595 130.428 5.82608 129.897 6.49324C129.381 7.14489 128.714 8.14565 127.895 9.4955C127.197 10.6592 126.636 11.5901 126.211 12.2883C125.801 12.9865 125.437 13.5683 125.119 14.0338C124.8 14.4992 124.421 14.957 123.981 15.4069C123.556 15.8413 122.965 16.3844 122.206 17.036L122.115 15.8258C123.056 16.6016 123.882 17.4162 124.595 18.2695C125.323 19.1074 125.968 19.9452 126.529 20.783C127.091 21.6209 127.606 22.4199 128.077 23.1802C128.881 24.4369 129.533 25.3601 130.034 25.9497C130.549 26.5238 131.111 26.8729 131.717 26.997C131.945 27.0435 132.241 27.1056 132.605 27.1832C132.984 27.2452 133.318 27.4082 133.606 27.6719C133.894 27.9357 134.038 28.3779 134.038 28.9985C134.038 30.2708 133.295 30.9069 131.808 30.9069C130.701 30.9069 129.556 30.5345 128.372 29.7898C127.204 29.0295 126.074 27.8969 124.982 26.3919C124.739 26.035 124.368 25.492 123.867 24.7628C123.382 24.018 122.934 23.3353 122.525 22.7147C121.599 21.2873 120.803 20.2245 120.135 19.5263C119.483 18.8281 118.838 18.479 118.201 18.479H115.016V28.7658C115.016 29.3864 114.834 29.8984 114.47 30.3018C114.121 30.7052 113.65 30.9069 113.059 30.9069Z" fill="#A79DDA"/>
<path d="M158.259 31C155.862 31 153.784 30.5345 152.024 29.6036C150.264 28.6727 148.907 27.3539 147.951 25.6471C146.995 23.9404 146.517 21.9234 146.517 19.5961V11.4039C146.517 9.07658 146.995 7.05956 147.951 5.35285C148.907 3.64615 150.264 2.32733 152.024 1.3964C153.784 0.465465 155.862 0 158.259 0C160.64 0 162.711 0.473223 164.471 1.41967C166.23 2.3506 167.588 3.66942 168.544 5.37612C169.515 7.08283 170 9.09209 170 11.4039V19.5961C170 21.9079 169.515 23.9172 168.544 25.6239C167.588 27.3306 166.23 28.6572 164.471 29.6036C162.711 30.5345 160.64 31 158.259 31ZM158.259 27.0901C160.838 27.0901 162.802 26.4384 164.152 25.1351C165.502 23.8163 166.177 21.9234 166.177 19.4565V11.5435C166.177 8.98348 165.495 7.07507 164.129 5.81832C162.764 4.54605 160.807 3.90991 158.259 3.90991C155.695 3.90991 153.731 4.56156 152.365 5.86486C151.015 7.16817 150.34 9.06106 150.34 11.5435V19.4565C150.34 21.9234 151.015 23.8163 152.365 25.1351C153.731 26.4384 155.695 27.0901 158.259 27.0901Z" fill="#A79DDA"/>
<path d="M158.259 0C160.64 1.01062e-05 162.711 0.473486 164.471 1.41992C166.23 2.35084 167.588 3.66932 168.544 5.37598C169.515 7.08268 170 9.09249 170 11.4043V19.5957C170 21.9075 169.515 23.9173 168.544 25.624C167.588 27.3307 166.23 28.6571 164.471 29.6035C162.711 30.5344 160.64 31 158.259 31C155.862 31 153.784 30.5343 152.024 29.6035C150.265 28.6726 148.907 27.354 147.951 25.6475C146.995 23.9408 146.518 21.923 146.518 19.5957V11.4043C146.518 9.07697 146.995 7.05925 147.951 5.35254C148.907 3.646 150.265 2.32735 152.024 1.39648C153.784 0.465659 155.862 0 158.259 0ZM94.0869 0.0927734C95.3005 0.0927734 95.9072 0.853502 95.9072 2.37402V28.6729C95.9072 30.1622 95.2703 30.9072 93.9961 30.9072C92.722 30.9072 92.085 30.2087 92.085 28.8125V7.09863L85 17.2637V11.4561L92.1299 1.28027C92.7063 0.489087 93.3589 0.0928784 94.0869 0.0927734ZM131.672 1.44336C133.249 1.44336 134.038 2.141 134.038 3.53711C134.038 4.28186 133.811 4.74741 133.355 4.93359C132.916 5.11976 132.354 5.25945 131.672 5.35254C131.02 5.44562 130.428 5.82615 129.897 6.49316C129.382 7.14478 128.714 8.14538 127.895 9.49512C127.197 10.6587 126.636 11.5899 126.211 12.2881C125.801 12.9863 125.437 13.5687 125.118 14.0342C124.8 14.4995 124.42 14.9574 123.98 15.4072C123.686 15.7085 123.309 16.0601 122.854 16.4658C123.495 17.0466 124.076 17.6475 124.596 18.2695C125.324 19.1073 125.968 19.9454 126.529 20.7832C127.091 21.621 127.607 22.4204 128.077 23.1807C128.881 24.4368 129.533 25.3597 130.033 25.9492C130.549 26.5233 131.111 26.8729 131.718 26.9971C131.945 27.0436 132.241 27.1061 132.604 27.1836C132.984 27.2457 133.318 27.4081 133.606 27.6719C133.894 27.9356 134.038 28.3778 134.038 28.998C134.038 30.2703 133.295 30.9072 131.809 30.9072C130.701 30.9072 129.555 30.5348 128.372 29.79C127.204 29.0298 126.075 27.8965 124.982 26.3916C124.74 26.0347 124.368 25.4919 123.867 24.7627C123.382 24.018 122.934 23.3355 122.524 22.7148C121.599 21.2876 120.803 20.2246 120.136 19.5264C119.483 18.8282 118.838 18.4785 118.201 18.4785H115.016V28.7656C115.016 29.3862 114.834 29.8984 114.47 30.3018C114.121 30.7052 113.65 30.9072 113.059 30.9072C112.497 30.9072 112.042 30.713 111.693 30.3252C111.36 29.9373 111.193 29.4173 111.193 28.7656V3.77051C111.193 3.13437 111.367 2.5985 111.716 2.16406C112.065 1.71413 112.558 1.48926 113.195 1.48926C114.409 1.48928 115.016 2.25001 115.016 3.77051V14.5693H118.656C119.066 14.5693 119.528 14.3593 120.044 13.9404C120.56 13.506 121.166 12.8077 121.864 11.8457C122.562 10.8683 123.389 9.5576 124.345 7.91309C124.663 7.37006 125.051 6.73408 125.506 6.00488C125.961 5.26017 126.484 4.54594 127.075 3.86328C127.682 3.16522 128.365 2.59151 129.123 2.1416C129.897 1.67614 130.747 1.44336 131.672 1.44336ZM158.259 3.91016C155.695 3.91016 153.73 4.56193 152.365 5.86523C151.015 7.16853 150.34 9.0616 150.34 11.5439V19.4561C150.34 21.9229 151.015 23.816 152.365 25.1348C153.73 26.4381 155.695 27.0898 158.259 27.0898C160.838 27.0898 162.802 26.4381 164.152 25.1348C165.502 23.816 166.178 21.9228 166.178 19.4561V11.5439C166.178 8.98388 165.494 7.07512 164.129 5.81836C162.764 4.54624 160.807 3.91017 158.259 3.91016Z" fill="#FFC452"/>
</svg>
