<svg width="462" height="81" viewBox="0 0 462 81" fill="none" xmlns="http://www.w3.org/2000/svg">
<path d="M61.5916 51.5167L50.9379 40.0126L61.5794 28.4874L61.5753 0.00839233L0 0.0167847L0.0167847 80.1501H61.6084L61.5916 51.5167ZM50.5086 53.3834L50.5168 70.0834H11.0916V10.0917L50.5046 10.0876L50.4959 26.7708L39.4292 40.0083L50.5086 53.3834ZM46.4752 54.6791L35.9792 41.8793L15.1087 41.875L15.125 66.3376L46.4834 66.3333L46.4752 54.6791ZM31.0791 48.0667L35.6918 53.2499V58.9958L25.9084 59.0042L25.9003 48.0708L31.0791 48.0667ZM46.4752 13.825L15.1087 13.829V38.1416L35.9711 38.1376L46.4752 25.4667V13.825ZM35.6791 21.1543V26.9124L31.0791 32.0999H25.9084L25.9003 21.1624L35.6791 21.1543ZM121.063 39.7334L132.987 0.0124613H107.08L100.629 27.4874H97.7376L91.2501 0.00839233L65.3585 0.0124613L77.3127 39.7166L64.3794 80.1501L90.2837 80.1626L97.6044 51.9541L100.771 51.9501L108.129 80.1666L134.017 80.1501L121.063 39.7334ZM119.771 70.0874H115.463L106.821 41.5876L91.5583 41.5916L82.9376 70.0834L78.6209 70.0874L87.6709 39.8582L79.3208 10.0749L83.6253 10.0708L91.421 37.8499L106.963 37.8543L114.717 10.0792H119.038L110.696 39.7334L119.771 70.0874ZM198.787 0.0124613L172.888 0.0167847L172.892 28.2209L163.117 28.2166L163.1 0.0124613L137.192 0.00406901L137.213 50.675L172.892 50.6625V57.7042L137.209 57.7126L137.221 80.1582L198.8 80.1458L198.787 0.0124613ZM187.709 10.0749V70.075L147.288 70.0834L147.292 66.3417L183.679 66.3333V41.1542L148.287 41.1708V10.0876L152.309 10.0792L152.317 37.4209H183.679L183.675 10.0792L187.709 10.0749ZM263.696 0.00406901L203.85 0.0167847V24.4624H220.679L220.692 80.1417L246.871 80.1374V24.4583L263.7 24.4624L263.696 0.00406901ZM253.634 10.0708L253.638 13.8166H235.8V70.0709H231.775L231.763 13.825H213.929V10.0749L253.634 10.0708ZM324.021 58.8417L294.679 58.8458L294.671 49.354L309.342 49.3416L309.346 30.6333L294.671 30.6376L294.679 21.2916L324.021 21.2791L324.017 0.00839233H268.771L268.784 80.1458L324.021 80.1292V58.8417ZM283.892 66.3208L313.959 66.3167L313.963 70.0584L279.862 70.0666L279.854 10.0708L313.95 10.0667L313.959 13.8125H283.892L283.879 38.1332L299.279 38.1167V41.8666H283.888L283.892 66.3208ZM391.663 0H369.504L353.98 33.3707L353.967 0H331.234L331.255 80.1249H353.417L368.934 46.7458L368.95 80.1249L391.683 80.1125L391.663 0ZM344.621 10.0708L344.638 66.1667L346.217 66.1583L373.954 10.0708H382.292L382.321 70.0457H378.284L378.267 13.8084H376.68L348.954 70.0584L340.6 70.0457L340.596 10.0708H344.621ZM461.884 0L435.971 0.00839233L436 27.4709H426.213L426.196 0.00406901L400.317 0L400.342 80.1209L426.238 80.1249L426.217 51.9376L436 51.9292L436.009 80.1209H461.9L461.884 0ZM450.804 10.0749L450.821 70.0501H446.779V41.5792H415.425L415.442 70.0501L411.409 70.0457L411.396 10.0708H415.417L415.425 37.8375L446.779 37.8334L446.767 10.0708L450.804 10.0749Z" fill="#A79DDA"/>
</svg>
